<mxfile host="65bd71144e">
    <diagram id="Xrz12yGBwPVck2pa48aS" name="Page-1">
        <mxGraphModel dx="490" dy="654" grid="1" gridSize="10" guides="1" tooltips="1" connect="1" arrows="1" fold="1" page="1" pageScale="1" pageWidth="827" pageHeight="1169" math="0" shadow="0">
            <root>
                <mxCell id="0"/>
                <mxCell id="1" parent="0"/>
                <mxCell id="2" value="&lt;b&gt;Acceuil&lt;/b&gt;" style="rounded=1;whiteSpace=wrap;html=1;strokeColor=#0000FF;strokeWidth=3;" parent="1" vertex="1">
                    <mxGeometry x="320" y="100" width="120" height="60" as="geometry"/>
                </mxCell>
                <mxCell id="3" value="" style="endArrow=none;html=1;entryX=0.5;entryY=1;entryDx=0;entryDy=0;fillColor=#0000FF;strokeWidth=3;strokeColor=#0000FF;" parent="1" target="2" edge="1">
                    <mxGeometry width="50" height="50" relative="1" as="geometry">
                        <mxPoint x="380" y="200" as="sourcePoint"/>
                        <mxPoint x="480" y="450" as="targetPoint"/>
                    </mxGeometry>
                </mxCell>
                <mxCell id="17" value="&lt;b&gt;Défis&lt;/b&gt;" style="rounded=1;whiteSpace=wrap;html=1;strokeColor=#0000FF;strokeWidth=3;" parent="1" vertex="1">
                    <mxGeometry x="590" y="280" width="120" height="60" as="geometry"/>
                </mxCell>
                <mxCell id="24" value="&lt;b&gt;Listes de Jeux&lt;/b&gt;" style="rounded=1;whiteSpace=wrap;html=1;strokeColor=#0000FF;strokeWidth=3;" parent="1" vertex="1">
                    <mxGeometry x="440" y="280" width="120" height="60" as="geometry"/>
                </mxCell>
                <mxCell id="27" value="&lt;b&gt;Voir un Jeux&lt;/b&gt;" style="rounded=1;whiteSpace=wrap;html=1;strokeColor=#66B2FF;strokeWidth=3;" parent="1" vertex="1">
                    <mxGeometry x="440" y="370" width="120" height="60" as="geometry"/>
                </mxCell>
                <mxCell id="29" value="&lt;b&gt;Voir un Défi&lt;/b&gt;" style="rounded=1;whiteSpace=wrap;html=1;strokeColor=#66B2FF;strokeWidth=3;" parent="1" vertex="1">
                    <mxGeometry x="590" y="370" width="120" height="60" as="geometry"/>
                </mxCell>
                <mxCell id="44" value="&lt;b&gt;Catégories&lt;/b&gt;" style="rounded=1;whiteSpace=wrap;html=1;strokeColor=#0000FF;strokeWidth=3;" parent="1" vertex="1">
                    <mxGeometry x="740" y="280" width="120" height="60" as="geometry"/>
                </mxCell>
                <mxCell id="46" value="&lt;b&gt;Voir les défis d&#39;une categories&lt;/b&gt;" style="rounded=1;whiteSpace=wrap;html=1;strokeColor=#66B2FF;strokeWidth=3;" parent="1" vertex="1">
                    <mxGeometry x="740" y="370" width="120" height="60" as="geometry"/>
                </mxCell>
                <mxCell id="55" value="&lt;b&gt;Profil (Admin/Utilisateur)&lt;/b&gt;" style="rounded=1;whiteSpace=wrap;html=1;strokeColor=#0000FF;strokeWidth=3;" parent="1" vertex="1">
                    <mxGeometry x="230" y="280" width="120" height="60" as="geometry"/>
                </mxCell>
                <mxCell id="59" value="" style="endArrow=classic;html=1;entryX=0.5;entryY=0;entryDx=0;entryDy=0;fillColor=#0000FF;strokeWidth=3;strokeColor=#0000FF;" parent="1" target="17" edge="1">
                    <mxGeometry width="50" height="50" relative="1" as="geometry">
                        <mxPoint x="650" y="200" as="sourcePoint"/>
                        <mxPoint x="910" y="410" as="targetPoint"/>
                    </mxGeometry>
                </mxCell>
                <mxCell id="61" value="" style="endArrow=classic;html=1;entryX=0.5;entryY=0;entryDx=0;entryDy=0;exitX=0.5;exitY=1;exitDx=0;exitDy=0;strokeWidth=3;strokeColor=#66B2FF;" parent="1" source="44" target="46" edge="1">
                    <mxGeometry width="50" height="50" relative="1" as="geometry">
                        <mxPoint x="510" y="230" as="sourcePoint"/>
                        <mxPoint x="510" y="310" as="targetPoint"/>
                    </mxGeometry>
                </mxCell>
                <mxCell id="64" value="" style="endArrow=classic;html=1;exitX=0.5;exitY=1;exitDx=0;exitDy=0;entryX=0.5;entryY=0;entryDx=0;entryDy=0;strokeWidth=3;strokeColor=#66B2FF;" parent="1" source="24" target="27" edge="1">
                    <mxGeometry width="50" height="50" relative="1" as="geometry">
                        <mxPoint x="870" y="350" as="sourcePoint"/>
                        <mxPoint x="920" y="300" as="targetPoint"/>
                    </mxGeometry>
                </mxCell>
                <mxCell id="65" value="" style="endArrow=classic;html=1;exitX=0.5;exitY=1;exitDx=0;exitDy=0;entryX=0.5;entryY=0;entryDx=0;entryDy=0;strokeWidth=3;strokeColor=#66B2FF;" parent="1" source="17" target="29" edge="1">
                    <mxGeometry width="50" height="50" relative="1" as="geometry">
                        <mxPoint x="860" y="350" as="sourcePoint"/>
                        <mxPoint x="910" y="300" as="targetPoint"/>
                    </mxGeometry>
                </mxCell>
                <mxCell id="77" value="" style="endArrow=classic;html=1;strokeWidth=3;strokeColor=#0000FF;" parent="1" edge="1">
                    <mxGeometry width="50" height="50" relative="1" as="geometry">
                        <mxPoint x="380" y="200" as="sourcePoint"/>
                        <mxPoint x="290" y="280" as="targetPoint"/>
                        <Array as="points">
                            <mxPoint x="290" y="200"/>
                        </Array>
                    </mxGeometry>
                </mxCell>
                <mxCell id="89" value="" style="endArrow=classic;html=1;fillColor=#0000FF;strokeWidth=3;strokeColor=#0000FF;" edge="1" parent="1" target="24">
                    <mxGeometry width="50" height="50" relative="1" as="geometry">
                        <mxPoint x="500" y="200" as="sourcePoint"/>
                        <mxPoint x="660" y="400" as="targetPoint"/>
                    </mxGeometry>
                </mxCell>
                <mxCell id="92" value="" style="endArrow=classic;html=1;entryX=0.5;entryY=0;entryDx=0;entryDy=0;strokeWidth=3;strokeColor=#3333FF;" edge="1" parent="1" target="44">
                    <mxGeometry width="50" height="50" relative="1" as="geometry">
                        <mxPoint x="380" y="200" as="sourcePoint"/>
                        <mxPoint x="220" y="370" as="targetPoint"/>
                        <Array as="points">
                            <mxPoint x="800" y="200"/>
                        </Array>
                    </mxGeometry>
                </mxCell>
            </root>
        </mxGraphModel>
    </diagram>
</mxfile>